{
    "asset" : {
        "generator" : "Khronos glTF Blender I/O v1.0.5",
        "version" : "2.0"
    },
    "scene" : 0,
    "scenes" : [
        {
            "name" : "Scene",
            "nodes" : [
                0,
                1,
                2,
                3,
                4,
                5,
                6,
                7,
                8,
                9,
                10,
                11,
                12
            ]
        }
    ],
    "nodes" : [
        {
            "name" : "Light",
            "rotation" : [
                0.16907575726509094,
                0.7558803558349609,
                -0.27217137813568115,
                0.570947527885437
            ],
            "translation" : [
                9.951604843139648,
                5.903861999511719,
                -0.6765589118003845
            ]
        },
        {
            "name" : "Camera",
            "rotation" : [
                0.483536034822464,
                0.33687159419059753,
                -0.20870360732078552,
                0.7804827094078064
            ],
            "translation" : [
                10.410104751586914,
                4.795557975769043,
                8.91989803314209
            ]
        },
        {
            "mesh" : 0,
            "name" : "Plane",
            "scale" : [
                -9.067047119140625,
                -9.067047119140625,
                9.067047119140625
            ],
            "translation" : [
                0,
                0,
                0.0066258907318115234
            ]
        },
        {
            "mesh" : 1,
            "name" : "Player",
            "scale" : [
                1,
                1,
                -1
            ],
            "translation" : [
                -3.6698827743530273,
                0,
                6.894402980804443
            ]
        },
        {
            "mesh" : 2,
            "name" : "Enemy",
            "scale" : [
                1,
                1,
                -1
            ],
            "translation" : [
                1.3871469497680664,
                0,
                -7.443043231964111
            ]
        },
        {
            "mesh" : 3,
            "name" : "Cube",
            "rotation" : [
                0,
                -0.20849014818668365,
                0,
                0.9780244827270508
            ],
            "scale" : [
                1,
                1,
                -1
            ],
            "translation" : [
                4.411401271820068,
                0,
                4.11519193649292
            ]
        },
        {
            "mesh" : 4,
            "name" : "Cube.001",
            "rotation" : [
                0,
                -0.20849014818668365,
                0,
                0.9780244827270508
            ],
            "scale" : [
                1,
                1,
                -1
            ],
            "translation" : [
                -0.7641534805297852,
                0,
                -3.670156478881836
            ]
        },
        {
            "mesh" : 5,
            "name" : "Cube.002",
            "rotation" : [
                0,
                0.685042679309845,
                0,
                0.7285029292106628
            ],
            "scale" : [
                -1,
                1,
                1
            ],
            "translation" : [
                -1.0054936408996582,
                0,
                6.059778213500977
            ]
        },
        {
            "mesh" : 6,
            "name" : "Cube.003",
            "rotation" : [
                0,
                -0.4548947215080261,
                0,
                0.8905452489852905
            ],
            "scale" : [
                -1,
                1,
                1
            ],
            "translation" : [
                5.896407127380371,
                0,
                -1.2592229843139648
            ]
        },
        {
            "mesh" : 7,
            "name" : "Cube.004",
            "rotation" : [
                0,
                0.788240909576416,
                0,
                0.6153668165206909
            ],
            "scale" : [
                -1,
                1,
                1
            ],
            "translation" : [
                5.993381500244141,
                0,
                6.972857475280762
            ]
        },
        {
            "mesh" : 8,
            "name" : "Cube.005",
            "rotation" : [
                0,
                -0.20849014818668365,
                0,
                0.9780244827270508
            ],
            "scale" : [
                1,
                1,
                -1
            ],
            "translation" : [
                -7.338195323944092,
                0,
                1.3406527042388916
            ]
        },
        {
            "mesh" : 9,
            "name" : "Target",
            "translation" : [
                -11.162160873413086,
                0,
                4.86478853225708
            ]
        },
        {
            "mesh" : 10,
            "name" : "Player.001",
            "scale" : [
                1,
                1,
                -1
            ],
            "translation" : [
                -4.873677730560303,
                0,
                6.170692443847656
            ]
        }
    ],
    "materials" : [
        {
            "doubleSided" : true,
            "name" : "Material.001",
            "pbrMetallicRoughness" : {
                "baseColorTexture" : {
                    "index" : 0,
                    "texCoord" : 0
                },
                "metallicFactor" : 0,
                "roughnessFactor" : 1
            }
        },
        {
            "doubleSided" : true,
            "name" : "Material.002",
            "pbrMetallicRoughness" : {
                "baseColorTexture" : {
                    "index" : 1,
                    "texCoord" : 0
                },
                "metallicFactor" : 0,
                "roughnessFactor" : 0.5
            }
        },
        {
            "doubleSided" : true,
            "name" : "Material.003",
            "pbrMetallicRoughness" : {
                "baseColorTexture" : {
                    "index" : 2,
                    "texCoord" : 0
                },
                "metallicFactor" : 0,
                "roughnessFactor" : 0.5
            }
        },
        {
            "doubleSided" : true,
            "name" : "Material.004",
            "pbrMetallicRoughness" : {
                "baseColorTexture" : {
                    "index" : 3,
                    "texCoord" : 0
                },
                "metallicFactor" : 0,
                "roughnessFactor" : 0.5
            }
        }
    ],
    "meshes" : [
        {
            "name" : "Plane",
            "primitives" : [
                {
                    "attributes" : {
                        "POSITION" : 0,
                        "NORMAL" : 1,
                        "TEXCOORD_0" : 2
                    },
                    "indices" : 3,
                    "material" : 0
                }
            ]
        },
        {
            "name" : "Cone",
            "primitives" : [
                {
                    "attributes" : {
                        "POSITION" : 4,
                        "NORMAL" : 5,
                        "TEXCOORD_0" : 6
                    },
                    "indices" : 7,
                    "material" : 1
                }
            ]
        },
        {
            "name" : "Cone.001",
            "primitives" : [
                {
                    "attributes" : {
                        "POSITION" : 8,
                        "NORMAL" : 9,
                        "TEXCOORD_0" : 10
                    },
                    "indices" : 7,
                    "material" : 2
                }
            ]
        },
        {
            "name" : "Cube.001",
            "primitives" : [
                {
                    "attributes" : {
                        "POSITION" : 11,
                        "NORMAL" : 12,
                        "TEXCOORD_0" : 13
                    },
                    "indices" : 14,
                    "material" : 3
                }
            ]
        },
        {
            "name" : "Cube.002",
            "primitives" : [
                {
                    "attributes" : {
                        "POSITION" : 15,
                        "NORMAL" : 16,
                        "TEXCOORD_0" : 17
                    },
                    "indices" : 18,
                    "material" : 3
                }
            ]
        },
        {
            "name" : "Cube.003",
            "primitives" : [
                {
                    "attributes" : {
                        "POSITION" : 19,
                        "NORMAL" : 20,
                        "TEXCOORD_0" : 21
                    },
                    "indices" : 14,
                    "material" : 3
                }
            ]
        },
        {
            "name" : "Cube.004",
            "primitives" : [
                {
                    "attributes" : {
                        "POSITION" : 22,
                        "NORMAL" : 23,
                        "TEXCOORD_0" : 24
                    },
                    "indices" : 14,
                    "material" : 3
                }
            ]
        },
        {
            "name" : "Cube.005",
            "primitives" : [
                {
                    "attributes" : {
                        "POSITION" : 25,
                        "NORMAL" : 26,
                        "TEXCOORD_0" : 27
                    },
                    "indices" : 14,
                    "material" : 3
                }
            ]
        },
        {
            "name" : "Cube.006",
            "primitives" : [
                {
                    "attributes" : {
                        "POSITION" : 28,
                        "NORMAL" : 29,
                        "TEXCOORD_0" : 30
                    },
                    "indices" : 14,
                    "material" : 3
                }
            ]
        },
        {
            "name" : "Sphere",
            "primitives" : [
                {
                    "attributes" : {
                        "POSITION" : 31,
                        "NORMAL" : 32,
                        "TEXCOORD_0" : 33
                    },
                    "indices" : 34
                }
            ]
        },
        {
            "name" : "Cone.002",
            "primitives" : [
                {
                    "attributes" : {
                        "POSITION" : 35,
                        "NORMAL" : 36,
                        "TEXCOORD_0" : 37
                    },
                    "indices" : 7,
                    "material" : 1
                }
            ]
        }
    ],
    "textures" : [
        {
            "source" : 0
        },
        {
            "source" : 1
        },
        {
            "source" : 2
        },
        {
            "source" : 3
        }
    ],
    "images" : [
        {
            "mimeType" : "image/png",
            "name" : "concrete_powder_green",
            "uri" : "concrete_powder_green.png"
        },
        {
            "mimeType" : "image/png",
            "name" : "wool_colored_yellow",
            "uri" : "wool_colored_yellow.png"
        },
        {
            "mimeType" : "image/png",
            "name" : "concrete_powder_red",
            "uri" : "concrete_powder_red.png"
        },
        {
            "mimeType" : "image/png",
            "name" : "door_spruce_upper",
            "uri" : "door_spruce_upper.png"
        }
    ],
    "accessors" : [
        {
            "bufferView" : 0,
            "componentType" : 5126,
            "count" : 4,
            "max" : [
                1,
                0,
                1
            ],
            "min" : [
                -1,
                0,
                -1
            ],
            "type" : "VEC3"
        },
        {
            "bufferView" : 1,
            "componentType" : 5126,
            "count" : 4,
            "type" : "VEC3"
        },
        {
            "bufferView" : 2,
            "componentType" : 5126,
            "count" : 4,
            "type" : "VEC2"
        },
        {
            "bufferView" : 3,
            "componentType" : 5123,
            "count" : 6,
            "type" : "SCALAR"
        },
        {
            "bufferView" : 4,
            "componentType" : 5126,
            "count" : 128,
            "max" : [
                0.24473392963409424,
                1.2352423667907715,
                0.2447342872619629
            ],
            "min" : [
                -0.24473464488983154,
                0.04577367752790451,
                -0.2447342872619629
            ],
            "type" : "VEC3"
        },
        {
            "bufferView" : 5,
            "componentType" : 5126,
            "count" : 128,
            "type" : "VEC3"
        },
        {
            "bufferView" : 6,
            "componentType" : 5126,
            "count" : 128,
            "type" : "VEC2"
        },
        {
            "bufferView" : 7,
            "componentType" : 5123,
            "count" : 186,
            "type" : "SCALAR"
        },
        {
            "bufferView" : 8,
            "componentType" : 5126,
            "count" : 128,
            "max" : [
                0.24473392963409424,
                1.2352423667907715,
                0.2447342872619629
            ],
            "min" : [
                -0.24473464488983154,
                0.04577367752790451,
                -0.2447342872619629
            ],
            "type" : "VEC3"
        },
        {
            "bufferView" : 9,
            "componentType" : 5126,
            "count" : 128,
            "type" : "VEC3"
        },
        {
            "bufferView" : 10,
            "componentType" : 5126,
            "count" : 128,
            "type" : "VEC2"
        },
        {
            "bufferView" : 11,
            "componentType" : 5126,
            "count" : 24,
            "max" : [
                1,
                2,
                1
            ],
            "min" : [
                -1,
                0,
                -1
            ],
            "type" : "VEC3"
        },
        {
            "bufferView" : 12,
            "componentType" : 5126,
            "count" : 24,
            "type" : "VEC3"
        },
        {
            "bufferView" : 13,
            "componentType" : 5126,
            "count" : 24,
            "type" : "VEC2"
        },
        {
            "bufferView" : 14,
            "componentType" : 5123,
            "count" : 36,
            "type" : "SCALAR"
        },
        {
            "bufferView" : 15,
            "componentType" : 5126,
            "count" : 24,
            "max" : [
                2.53544282913208,
                2,
                3.9338765144348145
            ],
            "min" : [
                -3.9269967079162598,
                5.960464477539063e-08,
                -3.305004358291626
            ],
            "type" : "VEC3"
        },
        {
            "bufferView" : 16,
            "componentType" : 5126,
            "count" : 24,
            "type" : "VEC3"
        },
        {
            "bufferView" : 17,
            "componentType" : 5126,
            "count" : 24,
            "type" : "VEC2"
        },
        {
            "bufferView" : 18,
            "componentType" : 5123,
            "count" : 36,
            "type" : "SCALAR"
        },
        {
            "bufferView" : 19,
            "componentType" : 5126,
            "count" : 24,
            "max" : [
                1,
                2,
                1
            ],
            "min" : [
                -5.4168195724487305,
                0,
                -1
            ],
            "type" : "VEC3"
        },
        {
            "bufferView" : 20,
            "componentType" : 5126,
            "count" : 24,
            "type" : "VEC3"
        },
        {
            "bufferView" : 21,
            "componentType" : 5126,
            "count" : 24,
            "type" : "VEC2"
        },
        {
            "bufferView" : 22,
            "componentType" : 5126,
            "count" : 24,
            "max" : [
                1,
                2,
                1
            ],
            "min" : [
                -1,
                0,
                -1
            ],
            "type" : "VEC3"
        },
        {
            "bufferView" : 23,
            "componentType" : 5126,
            "count" : 24,
            "type" : "VEC3"
        },
        {
            "bufferView" : 24,
            "componentType" : 5126,
            "count" : 24,
            "type" : "VEC2"
        },
        {
            "bufferView" : 25,
            "componentType" : 5126,
            "count" : 24,
            "max" : [
                1,
                2,
                1
            ],
            "min" : [
                -1,
                0,
                -1
            ],
            "type" : "VEC3"
        },
        {
            "bufferView" : 26,
            "componentType" : 5126,
            "count" : 24,
            "type" : "VEC3"
        },
        {
            "bufferView" : 27,
            "componentType" : 5126,
            "count" : 24,
            "type" : "VEC2"
        },
        {
            "bufferView" : 28,
            "componentType" : 5126,
            "count" : 24,
            "max" : [
                1,
                2,
                1
            ],
            "min" : [
                -1,
                0,
                -1
            ],
            "type" : "VEC3"
        },
        {
            "bufferView" : 29,
            "componentType" : 5126,
            "count" : 24,
            "type" : "VEC3"
        },
        {
            "bufferView" : 30,
            "componentType" : 5126,
            "count" : 24,
            "type" : "VEC2"
        },
        {
            "bufferView" : 31,
            "componentType" : 5126,
            "count" : 1984,
            "max" : [
                0.33073902130126953,
                0.3307383060455322,
                0.3307379484176636
            ],
            "min" : [
                -0.3307375907897949,
                -0.3307383060455322,
                -0.33073878288269043
            ],
            "type" : "VEC3"
        },
        {
            "bufferView" : 32,
            "componentType" : 5126,
            "count" : 1984,
            "type" : "VEC3"
        },
        {
            "bufferView" : 33,
            "componentType" : 5126,
            "count" : 1984,
            "type" : "VEC2"
        },
        {
            "bufferView" : 34,
            "componentType" : 5123,
            "count" : 2880,
            "type" : "SCALAR"
        },
        {
            "bufferView" : 35,
            "componentType" : 5126,
            "count" : 128,
            "max" : [
                0.24473392963409424,
                1.2352423667907715,
                0.2447342872619629
            ],
            "min" : [
                -0.24473464488983154,
                0.04577367752790451,
                -0.2447342872619629
            ],
            "type" : "VEC3"
        },
        {
            "bufferView" : 36,
            "componentType" : 5126,
            "count" : 128,
            "type" : "VEC3"
        },
        {
            "bufferView" : 37,
            "componentType" : 5126,
            "count" : 128,
            "type" : "VEC2"
        }
    ],
    "bufferViews" : [
        {
            "buffer" : 0,
            "byteLength" : 48,
            "byteOffset" : 0
        },
        {
            "buffer" : 0,
            "byteLength" : 48,
            "byteOffset" : 48
        },
        {
            "buffer" : 0,
            "byteLength" : 32,
            "byteOffset" : 96
        },
        {
            "buffer" : 0,
            "byteLength" : 12,
            "byteOffset" : 128
        },
        {
            "buffer" : 0,
            "byteLength" : 1536,
            "byteOffset" : 140
        },
        {
            "buffer" : 0,
            "byteLength" : 1536,
            "byteOffset" : 1676
        },
        {
            "buffer" : 0,
            "byteLength" : 1024,
            "byteOffset" : 3212
        },
        {
            "buffer" : 0,
            "byteLength" : 372,
            "byteOffset" : 4236
        },
        {
            "buffer" : 0,
            "byteLength" : 1536,
            "byteOffset" : 4608
        },
        {
            "buffer" : 0,
            "byteLength" : 1536,
            "byteOffset" : 6144
        },
        {
            "buffer" : 0,
            "byteLength" : 1024,
            "byteOffset" : 7680
        },
        {
            "buffer" : 0,
            "byteLength" : 288,
            "byteOffset" : 8704
        },
        {
            "buffer" : 0,
            "byteLength" : 288,
            "byteOffset" : 8992
        },
        {
            "buffer" : 0,
            "byteLength" : 192,
            "byteOffset" : 9280
        },
        {
            "buffer" : 0,
            "byteLength" : 72,
            "byteOffset" : 9472
        },
        {
            "buffer" : 0,
            "byteLength" : 288,
            "byteOffset" : 9544
        },
        {
            "buffer" : 0,
            "byteLength" : 288,
            "byteOffset" : 9832
        },
        {
            "buffer" : 0,
            "byteLength" : 192,
            "byteOffset" : 10120
        },
        {
            "buffer" : 0,
            "byteLength" : 72,
            "byteOffset" : 10312
        },
        {
            "buffer" : 0,
            "byteLength" : 288,
            "byteOffset" : 10384
        },
        {
            "buffer" : 0,
            "byteLength" : 288,
            "byteOffset" : 10672
        },
        {
            "buffer" : 0,
            "byteLength" : 192,
            "byteOffset" : 10960
        },
        {
            "buffer" : 0,
            "byteLength" : 288,
            "byteOffset" : 11152
        },
        {
            "buffer" : 0,
            "byteLength" : 288,
            "byteOffset" : 11440
        },
        {
            "buffer" : 0,
            "byteLength" : 192,
            "byteOffset" : 11728
        },
        {
            "buffer" : 0,
            "byteLength" : 288,
            "byteOffset" : 11920
        },
        {
            "buffer" : 0,
            "byteLength" : 288,
            "byteOffset" : 12208
        },
        {
            "buffer" : 0,
            "byteLength" : 192,
            "byteOffset" : 12496
        },
        {
            "buffer" : 0,
            "byteLength" : 288,
            "byteOffset" : 12688
        },
        {
            "buffer" : 0,
            "byteLength" : 288,
            "byteOffset" : 12976
        },
        {
            "buffer" : 0,
            "byteLength" : 192,
            "byteOffset" : 13264
        },
        {
            "buffer" : 0,
            "byteLength" : 23808,
            "byteOffset" : 13456
        },
        {
            "buffer" : 0,
            "byteLength" : 23808,
            "byteOffset" : 37264
        },
        {
            "buffer" : 0,
            "byteLength" : 15872,
            "byteOffset" : 61072
        },
        {
            "buffer" : 0,
            "byteLength" : 5760,
            "byteOffset" : 76944
        },
        {
            "buffer" : 0,
            "byteLength" : 1536,
            "byteOffset" : 82704
        },
        {
            "buffer" : 0,
            "byteLength" : 1536,
            "byteOffset" : 84240
        },
        {
            "buffer" : 0,
            "byteLength" : 1024,
            "byteOffset" : 85776
        }
    ],
    "buffers" : [
        {
            "byteLength" : 86800,
            "uri" : "dumb_map.bin"
        }
    ]
}
